<?xml version="1.0" encoding="utf-8"?>
<!-- Generator: Adobe Illustrator 25.0.1, SVG Export Plug-In . SVG Version: 6.00 Build 0)  -->
<svg version="1.1" id="Layer_1" xmlns="http://www.w3.org/2000/svg" xmlns:xlink="http://www.w3.org/1999/xlink" x="0px" y="0px"
	 viewBox="0 0 400.5 120.1" style="enable-background:new 0 0 400.5 120.1;" xml:space="preserve">
<style type="text/css">
	.st0{fill:#36C5ED;}
	.st1{fill:#ffffff;}
</style>
<path class="st0" d="M87.4,73.4c-0.5-4.6-1.7-9-3.6-13.2c-1.7-3.7-3.9-7.2-6.6-10.2c-0.4,2.6-0.9,4.8-1.3,6.2
	c-0.6,2.3-1,3.5-1.4,5.9c-0.3,1.4-0.4,2.8-0.5,4.2c0,1.9,0.2,3.7,0.7,5.5c2,8.1,0.3,16.6-4.6,23.4c-1.8,2.6-4,4.8-6.5,6.7
	c-0.8,0.6-1.6,1.2-2.4,1.7c-4.2,2.5-8.8,4.1-13.6,4.7c-10.1,1.4-20.2-2.2-27.1-9.6c-1.7-1.8-3.2-3.8-4.4-6c-0.5-0.8-0.9-1.7-1.3-2.6
	c-5.1-11-3.7-21.8,3.6-31.9c2.3-3.1,5.2-5.8,8.5-7.8c0.5-0.3,1-0.6,1.5-0.8c6.9-3.8,14.9-4.8,22.5-2.9c7.2,2,13.3-1.8,20-2.7
	c-8.8-8-22.9-11.7-36.4-8.8c-8.7,1.8-16.6,6.2-22.7,12.5C4,55.7-0.2,66.4,0,77.5c0,0.9,0,1.7,0.1,2.6c0.7,11,5.7,21.3,13.8,28.7
	c10.3,9.2,24.3,13.1,37.9,10.6c0.9-0.2,1.8-0.4,2.6-0.6c9.6-2.3,18.1-7.8,24.1-15.5c4-5.1,6.8-11.1,8.1-17.5
	C87.5,81.7,87.8,77.5,87.4,73.4z"/>
<path class="st1" d="M71.3,60.6L60.1,49.8l14.5-3.4C73.4,51.5,72.4,56.1,71.3,60.6z"/>
<path class="st0" d="M120.4,22.8c-0.5-5.6-2.8-10.6-5.9-13.7c-0.6,2.4-1.3,4.7-1.7,7.1c-0.2,1.2-0.1,2.4,0.1,3.6
	c0.8,3.1,0.9,6.3,0.2,9.4c-0.5,2.3-1.5,4.4-2.8,6.3c-1,1.5-2.3,2.8-3.8,3.9c-0.5,0.4-0.9,0.7-1.4,1c-2.4,1.5-5.1,2.4-7.9,2.7
	c-7.4,1.1-14.7-2.6-18.3-9.1c-0.3-0.5-0.5-1-0.7-1.5c-3-6.4-2.2-12.7,2.1-18.6c1.3-1.8,3-3.4,4.9-4.5L86,9c4-2.2,8.7-2.8,13.1-1.7
	c4.2,1.2,7.7-1.1,11.6-1.6c-5.1-4.7-13.3-6.8-21.2-5.2c-5,1-9.6,3.6-13.2,7.3c-4.4,4.7-6.9,10.9-6.8,17.4c0,0.5,0,1,0.1,1.5
	c0.4,6.4,3.3,12.4,8,16.7c6,5.4,14.2,7.6,22.1,6.2c0.5-0.1,1-0.2,1.5-0.3c5.5-1.3,10.5-4.5,14-9c2.3-3,4-6.5,4.7-10.2
	C120.5,27.7,120.7,25.3,120.4,22.8z"/>
<path class="st1" d="M111.1,15.4l-6.5-6.3l8.4-2L111.1,15.4z"/>
<path class="st1" d="M120.7,96.5l10.5,10.5c0.8,0.6,1.2,1.6,1.2,2.6c-0.1,2-1.7,3.5-3.7,3.5c-1.1,0-2.1-0.5-2.8-1.4l-13.6-14.1h-7.4
	v12.3c0,2-1.5,3.2-3.6,3.2s-3.6-1.2-3.6-3.2V72.4c0-1.9,1.2-3.1,3.3-3.1h13.6c12.1,0,17.2,6.6,17.2,13.7
	C131.8,89.6,127.2,95.2,120.7,96.5z M114.1,91c7.2,0,9.8-3.4,9.8-7.6s-2.6-7.5-9.8-7.5h-7.8c-0.9,0-1.3,0.4-1.3,1.5V91H114.1z"/>
<path class="st1" d="M159.5,106.4c7,0,11.4-4.8,11.4-12.3v-22c0-1.9,1.5-3.2,3.6-3.2s3.6,1.3,3.6,3.2v22.4c0,10.9-7,18.9-18.7,18.9
	s-18.7-8-18.7-18.9V72c0-1.9,1.5-3.2,3.6-3.2s3.6,1.3,3.6,3.2v22C148.1,101.5,152.4,106.4,159.5,106.4z"/>
<path class="st1" d="M212.4,96.5l10.5,10.5c0.8,0.6,1.2,1.6,1.2,2.6c-0.1,2-1.7,3.5-3.7,3.5c-1.1,0-2.1-0.5-2.8-1.4l-13.5-14.1h-7.3
	v12.3c0,2-1.5,3.2-3.6,3.2s-3.6-1.2-3.6-3.2V72.4c0-1.9,1.2-3.1,3.3-3.1h13.5c12.1,0,17.2,6.6,17.2,13.7
	C223.6,89.6,218.9,95.2,212.4,96.5z M205.8,91c7.2,0,9.8-3.4,9.8-7.6s-2.6-7.5-9.8-7.5H198c-0.9,0-1.3,0.4-1.3,1.5V91H205.8z"/>
<path class="st1" d="M251.2,106.4c7,0,11.4-4.8,11.4-12.3v-22c0-1.9,1.5-3.2,3.6-3.2s3.6,1.3,3.6,3.2v22.4c0,10.9-7,18.9-18.7,18.9
	s-18.7-8-18.7-18.9V72c0-1.9,1.5-3.2,3.6-3.2s3.6,1.3,3.6,3.2v22C239.8,101.5,244.1,106.4,251.2,106.4z"/>
<path class="st1" d="M279.3,75.9c-1.7,0.2-3.3-1.1-3.5-2.8c0-0.2,0-0.3,0-0.5c0-2.1,1.4-3.4,3.5-3.4h33.6c1.7-0.2,3.3,1.1,3.5,2.8
	c0,0.2,0,0.4,0,0.6c0,2-1.3,3.3-3.5,3.3h-13.2v33.9c0,1.9-1.5,3.2-3.6,3.2s-3.6-1.3-3.6-3.2V75.9H279.3z"/>
<path class="st1" d="M331.3,105.9h20.1c1.9-0.1,3.4,1.3,3.5,3.2s-1.3,3.4-3.2,3.5c-0.1,0-0.2,0-0.4,0h-25.1c-2.2,0-3.5-1.2-3.5-3.4
	V72.6c0-2.1,1.4-3.4,3.5-3.4h24.8c1.7-0.2,3.3,1.1,3.5,2.8c0,0.2,0,0.4,0,0.6c0,2-1.3,3.3-3.5,3.3h-19.8c-0.9,0-1.3,0.4-1.3,1.5
	v10.1h15c1.7-0.2,3.2,1.1,3.4,2.8c0,0.2,0,0.3,0,0.5c0,2-1.3,3.2-3.4,3.2h-15v10.3C330,105.5,330.4,105.9,331.3,105.9z"/>
<path class="st1" d="M367.1,68.8c2.1,0,3.6,1.3,3.6,3.2v19.4l22.7-21c0.8-0.9,1.9-1.5,3.1-1.6c2,0.1,3.6,1.7,3.7,3.7
	c-0.1,1.1-0.6,2.2-1.6,2.8L385,87.7l14.7,19.3c1.2,1.7,0.9,4-0.8,5.3c-0.7,0.5-1.6,0.8-2.4,0.7c-1.5,0-2.4-0.9-3.4-2.2l-13.7-18.2
	l-8.7,8v9.1c0,1.9-1.5,3.2-3.6,3.2s-3.6-1.3-3.6-3.2V72C363.5,70.1,365,68.8,367.1,68.8z"/>
</svg>
